<svg width="40" height="40" viewBox="0 0 40 40" fill="none" xmlns="http://www.w3.org/2000/svg">
<path d="M20 11.6667C20 9.89856 19.2976 8.20286 18.0474 6.95262C16.7971 5.70238 15.1014 5 13.3333 5H3.33334V30H15C16.3261 30 17.5979 30.5268 18.5355 31.4645C19.4732 32.4021 20 33.6739 20 35M20 11.6667V35M20 11.6667C20 9.89856 20.7024 8.20286 21.9526 6.95262C23.2029 5.70238 24.8986 5 26.6667 5H36.6667V30H25C23.6739 30 22.4021 30.5268 21.4645 31.4645C20.5268 32.4021 20 33.6739 20 35" stroke="#F5F5F7" stroke-width="3.5" stroke-linecap="round" stroke-linejoin="round"/>
</svg>
