<svg width="40" height="40" viewBox="0 0 40 40" fill="none" xmlns="http://www.w3.org/2000/svg">
<path d="M33.3334 20V36.6666H6.66671V20M20 36.6666V11.6666M20 11.6666H12.5C11.395 11.6666 10.3352 11.2277 9.55376 10.4463C8.77236 9.66486 8.33337 8.60505 8.33337 7.49998C8.33337 6.39491 8.77236 5.3351 9.55376 4.5537C10.3352 3.7723 11.395 3.33331 12.5 3.33331C18.3334 3.33331 20 11.6666 20 11.6666ZM20 11.6666H27.5C28.6051 11.6666 29.6649 11.2277 30.4463 10.4463C31.2277 9.66486 31.6667 8.60505 31.6667 7.49998C31.6667 6.39491 31.2277 5.3351 30.4463 4.5537C29.6649 3.7723 28.6051 3.33331 27.5 3.33331C21.6667 3.33331 20 11.6666 20 11.6666ZM3.33337 11.6666H36.6667V20H3.33337V11.6666Z" stroke="#F5F5F7" stroke-width="3.5" stroke-linecap="round" stroke-linejoin="round"/>
</svg>
