<svg width="40" height="40" viewBox="0 0 40 40" fill="none" xmlns="http://www.w3.org/2000/svg">
<g clip-path="url(#clip0_67_88)">
<path d="M26.6667 26.6667V5H1.66666V26.6667H26.6667ZM26.6667 26.6667H38.3333V18.3333L33.3333 13.3333H26.6667L26.6667 26.6667ZM13.3333 30.8333C13.3333 33.1345 11.4678 35 9.16666 35C6.86547 35 4.99999 33.1345 4.99999 30.8333C4.99999 28.5321 6.86547 26.6667 9.16666 26.6667C11.4678 26.6667 13.3333 28.5321 13.3333 30.8333ZM35 30.8333C35 33.1345 33.1345 35 30.8333 35C28.5321 35 26.6667 33.1345 26.6667 30.8333C26.6667 28.5321 28.5321 26.6667 30.8333 26.6667C33.1345 26.6667 35 28.5321 35 30.8333Z" stroke="#F5F5F7" stroke-width="3.5" stroke-linecap="round" stroke-linejoin="round"/>
</g>
<defs>
<clipPath id="clip0_67_88">
<rect width="40" height="40" fill="white"/>
</clipPath>
</defs>
</svg>
